<svg width="20" height="13" viewBox="0 0 20 13" fill="none" xmlns="http://www.w3.org/2000/svg">
    <path d="M17.81 10.6761L18.905 11.7167L20 10.6761V12.7288H17.81L16.685 11.7167L15.59 12.7288H13.355L12.23 11.7167L11.135 12.7288H10.025H8.91505L11.135 10.6761L10.025 9.62129L6.66405 12.7288H4.47404L11.135 6.49957L10.025 5.41624L2.22404 12.7145H0.0340424L11.135 2.30878L10.025 1.28246L0.0340424 10.6619V8.53795L8.91505 0.213379H10.025H11.135L12.23 1.26821L13.355 0.213379H15.575L16.67 1.26821L17.795 0.213379H19.985V2.30878L18.89 1.28246L17.81 2.30878L18.905 3.34935L20 2.33729V4.36141V4.38992V6.49957L18.905 5.41624L17.81 6.49957L18.905 7.54014L20 6.49957V8.55221V10.6191L18.905 9.60703L17.81 10.6761ZM6.66405 0.227634L0.019043 6.49957V4.38992L4.47404 0.213379H6.66405V0.227634ZM2.20905 0.227634L0.019043 2.30878V0.227634H2.20905ZM12.23 5.43049L13.355 4.40418L12.23 3.3636L11.135 4.40418L12.23 5.43049ZM12.23 9.60703L13.355 8.55221L12.23 7.54014L11.135 8.55221L12.23 9.60703ZM13.355 2.30878L14.45 3.34935L15.575 2.30878L14.45 1.28246L13.355 2.30878ZM15.575 6.49957L14.45 5.41624L13.355 6.49957L14.45 7.54014L15.575 6.49957ZM15.575 10.6761L14.45 9.62129L13.355 10.6761L14.45 11.7167L15.575 10.6761ZM16.67 3.34935L15.575 4.38992L16.67 5.41624L17.795 4.38992L16.67 3.34935ZM16.67 7.54014L15.575 8.55221L16.67 9.60703L17.795 8.55221L16.67 7.54014Z" fill="currentColor"/>
</svg>
