<svg width="139" height="13" viewBox="0 0 139 13" fill="none" xmlns="http://www.w3.org/2000/svg">
    <path d="M6.5691 3.66338L6.38662 3.49233C6.38662 2.55154 5.56549 1.69627 4.28816 1.69627C3.01084 1.69627 2.1897 2.39474 2.1897 3.32127C2.1897 4.34759 2.6763 4.94627 4.10569 5.3454L5.56549 5.74452C7.299 6.1864 8.66756 7.26973 8.66756 9.32237C8.66756 11.1184 7.20776 13 4.3794 13C1.90078 13 0.0456187 11.2467 0 9.32237L0.0912395 9.15132L1.73351 8.63816L1.91599 8.80921C1.88557 10.3487 3.11728 11.2039 4.3794 11.2039C5.93043 11.2039 6.75157 10.4342 6.75157 9.32237C6.75157 8.125 5.73275 7.6261 4.83558 7.42654C4.3946 7.32676 3.83197 7.16996 3.37579 7.02742C1.64228 6.5 0.273713 5.38816 0.273713 3.33553C0.273713 1.45395 1.99202 0 4.27295 0C6.55389 0 8.30261 1.45395 8.30261 3.50658L8.12013 3.67763H6.5691V3.66338Z" fill="currentColor"/>
    <path d="M11.1309 0.41373L11.3133 0.242676H19.1598L19.3422 0.41373V1.78215L19.1598 1.9532H16.2097V12.5585L16.0273 12.7295H14.461L14.2785 12.5585V1.9532H11.3133L11.1309 1.78215V0.41373Z" fill="currentColor"/>
    <path d="M22.1714 0.41373L22.3539 0.242676H26.3683C28.558 0.242676 30.474 1.52557 30.474 3.74925C30.474 5.81614 28.558 7.08479 26.5356 7.15606L30.7477 12.3874V12.7295H28.7405L28.558 12.5585L24.3611 7.17031H24.0874V12.5585L23.9049 12.7295H22.3539L22.1714 12.5585V0.41373ZM26.4595 5.54531C27.5544 5.54531 28.558 4.94662 28.558 3.74925C28.558 2.55189 27.5544 1.9532 26.4595 1.9532H24.0874V5.54531H26.4595Z" fill="currentColor"/>
    <path d="M33.0278 0.41373L33.2103 0.242676H40.8742L41.0567 0.41373V1.78215L40.8742 1.9532H34.9438V5.54531H40.6918L40.8742 5.71636V7.08478L40.6918 7.25584H34.9438V11.019H40.8742L41.0567 11.19V12.5585L40.8742 12.7295H33.2103L33.0278 12.5585V0.41373Z" fill="currentColor"/>
    <path d="M43.8843 0.41373L44.0668 0.242676H45.6178L45.8003 0.41373V11.019H51.7307L51.9132 11.19V12.5585L51.7307 12.7295H44.0668L43.8843 12.5585V0.41373Z" fill="currentColor"/>
    <path d="M63.0463 0.242676L63.1375 0.41373L58.0282 6.31505L63.32 12.5585L63.2287 12.7295H61.1303L60.9478 12.5585L56.6596 7.42689V12.5585L56.4772 12.7295H54.9261L54.7437 12.5585V0.41373L54.9261 0.242676H56.4924L56.6596 0.41373V5.37426L60.7653 0.41373L60.9478 0.242676H63.0463Z" fill="currentColor"/>
    <path d="M68.3356 0.41373L68.5181 0.242676H70.5253L70.7078 0.41373L74.3573 12.5585L74.2661 12.7295H72.5325L72.3501 12.5585L71.5593 9.65058H67.4689L66.6781 12.5585L66.4957 12.7295H64.7621L64.6709 12.5585L68.3356 0.41373ZM67.9707 7.94005H71.0727L69.5217 2.46636L67.9707 7.94005Z" fill="currentColor"/>
    <path d="M95.6028 0.242676L95.6941 0.41373L90.5848 6.31505L95.8766 12.5585L95.7853 12.7295H93.6869L93.5044 12.5585L89.2162 7.42689V12.5585L89.0337 12.7295H87.4979L87.3154 12.5585V0.41373L87.4979 0.242676H89.0642L89.2314 0.41373V5.37426L93.3371 0.41373L93.5196 0.242676H95.6028Z" fill="currentColor"/>
    <path d="M98.3544 0.242676H105.106L105.288 0.41373V1.78215L105.106 1.9532H100.088V5.54531H102.278C104.65 5.54531 106.383 6.99926 106.383 9.13742C106.383 11.2756 104.65 12.7295 102.278 12.7295H98.3544L98.1719 12.5585V0.41373L98.3544 0.242676ZM102.369 11.019C103.464 11.019 104.467 10.4203 104.467 9.13742C104.467 7.85452 103.464 7.25584 102.369 7.25584H100.088V11.019H102.369Z" fill="currentColor"/>
    <path d="M136.81 10.6761L137.905 11.7167L139 10.6761V12.7288H136.81L135.685 11.7167L134.59 12.7288H132.355L131.23 11.7167L130.135 12.7288H129.025H127.915L130.135 10.6761L129.025 9.62129L125.664 12.7288H123.474L130.135 6.49957L129.025 5.41624L121.224 12.7145H119.034L130.135 2.30878L129.025 1.28246L119.034 10.6619V8.53795L127.915 0.213379H129.025H130.135L131.23 1.26821L132.355 0.213379H134.575L135.67 1.26821L136.795 0.213379H138.985V2.30878L137.89 1.28246L136.81 2.30878L137.905 3.34935L139 2.33729V4.36141V4.38992V6.49957L137.905 5.41624L136.81 6.49957L137.905 7.54014L139 6.49957V8.55221V10.6191L137.905 9.60703L136.81 10.6761ZM125.664 0.227634L119.019 6.49957V4.38992L123.474 0.213379H125.664V0.227634ZM121.209 0.227634L119.019 2.30878V0.227634H121.209ZM131.23 5.43049L132.355 4.40418L131.23 3.3636L130.135 4.40418L131.23 5.43049ZM131.23 9.60703L132.355 8.55221L131.23 7.54014L130.135 8.55221L131.23 9.60703ZM132.355 2.30878L133.45 3.34935L134.575 2.30878L133.45 1.28246L132.355 2.30878ZM134.575 6.49957L133.45 5.41624L132.355 6.49957L133.45 7.54014L134.575 6.49957ZM134.575 10.6761L133.45 9.62129L132.355 10.6761L133.45 11.7167L134.575 10.6761ZM135.67 3.34935L134.575 4.38992L135.67 5.41624L136.795 4.38992L135.67 3.34935ZM135.67 7.54014L134.575 8.55221L135.67 9.60703L136.795 8.55221L135.67 7.54014Z" fill="currentColor"/>
</svg>
