<svg width="329" height="32" viewBox="0 0 329 32" fill="none" xmlns="http://www.w3.org/2000/svg">
    <path fill-rule="evenodd" clip-rule="evenodd" d="M0.0300293 0.606812V5.6753L5.16153 0.606812H0.0300293Z" fill="white"/>
    <path fill-rule="evenodd" clip-rule="evenodd" d="M20.7634 0.606812L0.0300293 21.0853V26.2187L25.96 0.606812H20.7634Z" fill="white"/>
    <path fill-rule="evenodd" clip-rule="evenodd" d="M41.5572 0.606812L10.4141 31.3687H15.6118L46.7549 0.606812H41.5572Z" fill="white"/>
    <path fill-rule="evenodd" clip-rule="evenodd" d="M31.21 31.3683H36.4065L46.7677 21.1343V16.0009L31.21 31.3683Z" fill="white"/>
    <path fill-rule="evenodd" clip-rule="evenodd" d="M10.3637 0.606812L0.0300293 10.8134V15.9455L15.5602 0.606812H10.3637Z" fill="white"/>
    <path fill-rule="evenodd" clip-rule="evenodd" d="M31.161 0.606812L0.0300293 31.3558V31.3687H5.21448L36.3576 0.606812H31.161Z" fill="white"/>
    <path fill-rule="evenodd" clip-rule="evenodd" d="M20.8115 31.3682H26.0092L46.7691 10.8623V5.72888L20.8115 31.3682Z" fill="white"/>
    <path fill-rule="evenodd" clip-rule="evenodd" d="M41.6133 31.3683H46.7735V26.272L41.6133 31.3683Z" fill="white"/>
    <path fill-rule="evenodd" clip-rule="evenodd" d="M41.6514 0.606812L46.7675 5.65939V0.606812H41.6514Z" fill="white"/>
    <path fill-rule="evenodd" clip-rule="evenodd" d="M23.4102 0.606812V3.12773L46.7683 26.201V21.0672L26.0537 0.606812H23.4102Z" fill="white"/>
    <path fill-rule="evenodd" clip-rule="evenodd" d="M23.4102 23.6706L31.2028 31.3682H36.3994L23.4102 18.5372V23.6706Z" fill="white"/>
    <path fill-rule="evenodd" clip-rule="evenodd" d="M31.2549 0.606812L46.7685 15.9304V10.7971L36.4515 0.606812H31.2549Z" fill="white"/>
    <path fill-rule="evenodd" clip-rule="evenodd" d="M23.4102 13.3988L41.6015 31.3683H46.7683V31.3383L23.4102 8.26538V13.3988Z" fill="white"/>
    <path d="M76.52 1.05286V30.947L76.9411 31.368H85.9935C91.4671 31.368 95.467 27.7891 95.467 22.5261C95.467 17.263 91.4671 13.6842 85.9935 13.6842H80.941V4.84225H92.5197L92.9407 4.4212V1.05286L92.5197 0.631812H76.9411L76.52 1.05286ZM80.941 27.1576V17.8946H86.204C88.7303 17.8946 91.046 19.3683 91.046 22.5261C91.046 25.6839 88.7303 27.1576 86.204 27.1576H80.941Z" fill="white"/>
    <path d="M106.427 1.05286L106.006 0.631812H102.638L102.217 1.05286V30.947L102.638 31.368H107.48L107.901 30.947L116.111 8.2106V30.947L116.575 31.368H119.901L120.322 30.947V1.05286L119.901 0.631812H115.059L114.638 1.05286L106.427 23.3682V1.05286Z" fill="white"/>
    <path d="M127.914 1.05286V30.947L128.335 31.368H137.387C142.861 31.368 146.861 27.7891 146.861 22.5261C146.861 17.263 142.861 13.6842 137.387 13.6842H132.335V4.84225H143.914L144.335 4.4212V1.05286L143.914 0.631812H128.335L127.914 1.05286ZM132.335 27.1576V17.8946H137.598C140.124 17.8946 142.44 19.3683 142.44 22.5261C142.44 25.6839 140.124 27.1576 137.598 27.1576H132.335Z" fill="white"/>
    <path d="M155.295 1.05286V24.2103C155.295 26.3155 154.032 27.5786 151.927 27.5786L151.506 27.9997V31.368L151.927 31.7891C156.979 31.7891 159.716 28.1681 159.716 24.1682V4.84225H167.295V30.947L167.716 31.368H171.295L171.716 30.947V1.05286L171.295 0.631812H155.716L155.295 1.05286Z" fill="white"/>
    <path d="M183.518 1.05286L183.097 0.631812H179.729L179.308 1.05286V30.947L179.729 31.368H184.571L184.992 30.947L193.202 8.2106V30.947L193.665 31.368H196.991L197.412 30.947V1.05286L196.991 0.631812H192.149L191.728 1.05286L183.518 23.3682V1.05286Z" fill="white"/>
    <path d="M203.741 15.9999C203.741 24.6313 206.689 32.0417 214.057 31.9996C221.425 31.9575 224.372 24.6313 224.372 15.9999C224.372 7.36851 221.425 0.000244141 214.057 0.000244141C206.689 0.000244141 203.741 7.36851 203.741 15.9999ZM208.078 15.9999C208.078 9.89477 209.004 4.21068 214.057 4.21068C219.109 4.21068 220.036 9.89477 220.036 15.9999C220.036 22.105 219.109 27.7891 214.057 27.7891C209.004 27.7891 208.078 22.105 208.078 15.9999Z" fill="white"/>
    <path d="M230.28 4.4212L230.701 4.84225H237.522V30.947L237.943 31.368H241.564L241.985 30.947V4.84225H248.806L249.227 4.4212V1.05286L248.806 0.631812H230.701L230.28 1.05286V4.4212Z" fill="white"/>
    <path d="M256.398 30.947L256.819 31.368H274.503L274.924 30.947V27.5786L274.503 27.1576H260.819V17.8946H274.082L274.503 17.4736V14.1052L274.082 13.6842H260.819V4.84225H274.503L274.924 4.4212V1.05286L274.503 0.631812H256.819L256.398 1.05286V30.947Z" fill="white"/>
    <path d="M296.41 0.631812L295.989 1.05286L286.516 13.2631V1.05286L286.137 0.631812H282.516L282.095 1.05286V30.947L282.516 31.368H286.095L286.516 30.947V18.3157L296.41 30.947L296.831 31.368H301.673L301.884 30.947L289.674 15.5789L301.463 1.05286L301.252 0.631812H296.41Z" fill="white"/>
    <path d="M305.687 30.947L305.897 31.368H309.897L310.318 30.947L312.129 23.7892H321.56L323.37 30.947L323.791 31.368H327.791L328.002 30.947L319.581 1.05286L319.16 0.631812H314.528L314.107 1.05286L305.687 30.947ZM316.844 6.10538L320.423 19.5788H313.265L316.844 6.10538Z" fill="white"/>
</svg>
