<svg width="613" height="32" viewBox="0 0 613 32" fill="none" xmlns="http://www.w3.org/2000/svg">
    <path fill-rule="evenodd" clip-rule="evenodd" d="M15.346 9.05226L14.9196 8.63153C14.9196 6.31561 13.0014 4.21026 10.0172 4.21026C7.03344 4.21026 5.11519 5.93656 5.11519 8.21038C5.11519 10.7364 6.26596 12.2105 9.59081 13.1787L13.0014 14.1474C17.0506 15.242 20.248 17.8948 20.248 22.9473C20.248 27.3686 16.8379 32 10.2304 32C4.43342 32 0.0852748 27.663 0 22.9473L0.213187 22.5263L4.04969 21.2632L4.47563 21.6843C4.39035 25.4735 7.28927 27.5788 10.2304 27.5788C13.8537 27.5788 15.772 25.684 15.772 22.9473C15.772 20.0001 13.3851 18.7788 11.2959 18.2734C10.273 18.0212 8.95169 17.6421 7.88619 17.3052C3.8365 15.9996 0.639127 13.2629 0.639127 8.21038C0.639127 3.57896 4.64617 0 9.97455 0C15.3029 0 19.3952 3.57896 19.3952 8.63153L18.9693 9.05226H15.346Z" fill="white"/>
    <path fill-rule="evenodd" clip-rule="evenodd" d="M26.6426 1.0525L27.0689 0.631348H45.3987L45.8251 1.0525V4.42089L45.3987 4.84204H38.4932V30.9473L38.0668 31.3683H34.4009L33.9745 30.9473V4.84204H27.0689L26.6426 4.42089V1.0525Z" fill="white"/>
    <path fill-rule="evenodd" clip-rule="evenodd" d="M63.089 13.6841C65.6468 13.6841 67.9914 12.2105 67.9914 9.26288C67.9914 6.31566 65.6468 4.84204 63.089 4.84204H57.5479V13.6841H63.089ZM53.0718 1.0525L53.4977 0.631348H62.8763C67.9914 0.631348 72.4675 3.78915 72.4675 9.26288C72.4675 14.358 67.9914 17.4737 63.2595 17.6421L73.1066 30.5265V31.3683H68.4174L67.9914 30.9473L58.187 17.6843H57.5479V30.9473L57.1214 31.3683H53.4977L53.0718 30.9473V1.0525Z" fill="white"/>
    <path fill-rule="evenodd" clip-rule="evenodd" d="M79.0747 1.0525L79.5006 0.631348H97.404L97.8304 1.0525V4.42089L97.404 4.84204H83.5504V13.6841H96.9781L97.404 14.1053V17.4737L96.9781 17.8948H83.5504V27.1577H97.404L97.8304 27.5788V30.9473L97.404 31.3683H79.5006L79.0747 30.9473V1.0525Z" fill="white"/>
    <path fill-rule="evenodd" clip-rule="evenodd" d="M105.078 1.0525L105.504 0.631348H109.127L109.554 1.0525V27.1577H123.408L123.834 27.5788V30.9473L123.408 31.3683H105.504L105.078 30.9473V1.0525Z" fill="white"/>
    <path fill-rule="evenodd" clip-rule="evenodd" d="M150.476 0.631348L150.689 1.0525L138.754 15.5789L151.116 30.9473L150.902 31.3683H146.001L145.574 30.9473L135.557 18.316V30.9473L135.13 31.3683H131.507L131.08 30.9473V1.0525L131.507 0.631348H135.173L135.557 1.0525V13.263L145.148 1.0525L145.574 0.631348H150.476Z" fill="white"/>
    <path fill-rule="evenodd" clip-rule="evenodd" d="M162.624 19.5791H169.871L166.247 6.10507L162.624 19.5791ZM163.476 1.0525L163.902 0.631348H168.591L169.018 1.0525L177.543 30.9473L177.33 31.3683H173.281L172.854 30.9473L171.022 23.7893H161.473L159.64 30.9473L159.214 31.3683H155.164L154.95 30.9473L163.476 1.0525Z" fill="white"/>
    <path fill-rule="evenodd" clip-rule="evenodd" d="M228.491 0.631348L228.704 1.0525L216.769 15.5789L229.131 30.9473L228.918 31.3683H224.016L223.589 30.9473L213.572 18.316V30.9473L213.145 31.3683H209.522L209.095 30.9473V1.0525L209.522 0.631348H213.188L213.572 1.0525V13.263L223.162 1.0525L223.589 0.631348H228.491Z" fill="white"/>
    <path fill-rule="evenodd" clip-rule="evenodd" d="M244.903 27.1577C247.46 27.1577 249.805 25.6841 249.805 22.5263C249.805 19.3684 247.46 17.8948 244.903 17.8948H239.574V27.1577H244.903ZM235.524 0.631348H251.297L251.723 1.0525V4.42089L251.297 4.84204H239.574V13.6841H244.69C250.23 13.6841 254.281 17.2631 254.281 22.5263C254.281 27.7894 250.23 31.3683 244.69 31.3683H235.524L235.098 30.9473V1.0525L235.524 0.631348Z" fill="white"/>
    <path fill-rule="evenodd" clip-rule="evenodd" d="M284.03 0.606812V5.6753L289.162 0.606812H284.03Z" fill="white"/>
    <path fill-rule="evenodd" clip-rule="evenodd" d="M304.763 0.606812L284.03 21.0853V26.2187L309.96 0.606812H304.763Z" fill="white"/>
    <path fill-rule="evenodd" clip-rule="evenodd" d="M325.557 0.606812L294.414 31.3687H299.612L330.755 0.606812H325.557Z" fill="white"/>
    <path fill-rule="evenodd" clip-rule="evenodd" d="M315.21 31.3683H320.407L330.768 21.1343V16.0009L315.21 31.3683Z" fill="white"/>
    <path fill-rule="evenodd" clip-rule="evenodd" d="M294.364 0.606812L284.03 10.8134V15.9455L299.56 0.606812H294.364Z" fill="white"/>
    <path fill-rule="evenodd" clip-rule="evenodd" d="M315.161 0.606812L284.03 31.3558V31.3687H289.214L320.358 0.606812H315.161Z" fill="white"/>
    <path fill-rule="evenodd" clip-rule="evenodd" d="M304.812 31.3682H310.009L330.769 10.8623V5.72888L304.812 31.3682Z" fill="white"/>
    <path fill-rule="evenodd" clip-rule="evenodd" d="M325.613 31.3683H330.773V26.272L325.613 31.3683Z" fill="white"/>
    <path fill-rule="evenodd" clip-rule="evenodd" d="M325.651 0.606812L330.767 5.65939V0.606812H325.651Z" fill="white"/>
    <path fill-rule="evenodd" clip-rule="evenodd" d="M307.41 0.606812V3.12773L330.768 26.201V21.0672L310.054 0.606812H307.41Z" fill="white"/>
    <path fill-rule="evenodd" clip-rule="evenodd" d="M307.41 23.6706L315.203 31.3682H320.399L307.41 18.5372V23.6706Z" fill="white"/>
    <path fill-rule="evenodd" clip-rule="evenodd" d="M315.255 0.606812L330.769 15.9304V10.7971L320.451 0.606812H315.255Z" fill="white"/>
    <path fill-rule="evenodd" clip-rule="evenodd" d="M307.41 13.3988L325.602 31.3683H330.768V31.3383L307.41 8.26538V13.3988Z" fill="white"/>
    <path d="M360.52 1.05286V30.947L360.941 31.368H369.994C375.467 31.368 379.467 27.7891 379.467 22.5261C379.467 17.263 375.467 13.6842 369.994 13.6842H364.941V4.84225H376.52L376.941 4.4212V1.05286L376.52 0.631812H360.941L360.52 1.05286ZM364.941 27.1576V17.8946H370.204C372.73 17.8946 375.046 19.3683 375.046 22.5261C375.046 25.6839 372.73 27.1576 370.204 27.1576H364.941Z" fill="white"/>
    <path d="M390.427 1.05286L390.006 0.631812H386.638L386.217 1.05286V30.947L386.638 31.368H391.48L391.901 30.947L400.111 8.2106V30.947L400.575 31.368H403.901L404.322 30.947V1.05286L403.901 0.631812H399.059L398.638 1.05286L390.427 23.3682V1.05286Z" fill="white"/>
    <path d="M411.914 1.05286V30.947L412.335 31.368H421.387C426.861 31.368 430.861 27.7891 430.861 22.5261C430.861 17.263 426.861 13.6842 421.387 13.6842H416.335V4.84225H427.914L428.335 4.4212V1.05286L427.914 0.631812H412.335L411.914 1.05286ZM416.335 27.1576V17.8946H421.598C424.124 17.8946 426.44 19.3683 426.44 22.5261C426.44 25.6839 424.124 27.1576 421.598 27.1576H416.335Z" fill="white"/>
    <path d="M439.295 1.05286V24.2103C439.295 26.3155 438.032 27.5786 435.927 27.5786L435.506 27.9997V31.368L435.927 31.7891C440.979 31.7891 443.716 28.1681 443.716 24.1682V4.84225H451.295V30.947L451.716 31.368H455.295L455.716 30.947V1.05286L455.295 0.631812H439.716L439.295 1.05286Z" fill="white"/>
    <path d="M467.518 1.05286L467.097 0.631812H463.729L463.308 1.05286V30.947L463.729 31.368H468.571L468.992 30.947L477.202 8.2106V30.947L477.665 31.368H480.991L481.412 30.947V1.05286L480.991 0.631812H476.149L475.728 1.05286L467.518 23.3682V1.05286Z" fill="white"/>
    <path d="M487.741 15.9999C487.741 24.6313 490.689 32.0417 498.057 31.9996C505.425 31.9575 508.372 24.6313 508.372 15.9999C508.372 7.36851 505.425 0.000244141 498.057 0.000244141C490.689 0.000244141 487.741 7.36851 487.741 15.9999ZM492.078 15.9999C492.078 9.89477 493.004 4.21068 498.057 4.21068C503.109 4.21068 504.036 9.89477 504.036 15.9999C504.036 22.105 503.109 27.7891 498.057 27.7891C493.004 27.7891 492.078 22.105 492.078 15.9999Z" fill="white"/>
    <path d="M514.28 4.4212L514.701 4.84225H521.522V30.947L521.943 31.368H525.564L525.985 30.947V4.84225H532.806L533.227 4.4212V1.05286L532.806 0.631812H514.701L514.28 1.05286V4.4212Z" fill="white"/>
    <path d="M540.398 30.947L540.819 31.368H558.503L558.924 30.947V27.5786L558.503 27.1576H544.819V17.8946H558.082L558.503 17.4736V14.1052L558.082 13.6842H544.819V4.84225H558.503L558.924 4.4212V1.05286L558.503 0.631812H540.819L540.398 1.05286V30.947Z" fill="white"/>
    <path d="M580.41 0.631812L579.989 1.05286L570.516 13.2631V1.05286L570.137 0.631812H566.516L566.095 1.05286V30.947L566.516 31.368H570.095L570.516 30.947V18.3157L580.41 30.947L580.831 31.368H585.673L585.884 30.947L573.674 15.5789L585.463 1.05286L585.252 0.631812H580.41Z" fill="white"/>
    <path d="M589.687 30.947L589.897 31.368H593.897L594.318 30.947L596.129 23.7892H605.56L607.37 30.947L607.791 31.368H611.791L612.002 30.947L603.581 1.05286L603.16 0.631812H598.528L598.107 1.05286L589.687 30.947ZM600.844 6.10538L604.423 19.5788H597.265L600.844 6.10538Z" fill="white"/>
</svg>
